# xmcd CD database file
#
# Track frame offsets:
#	150
#	22005
#	44125
#	67997
#	98842
#	116598
#	144998
#	170583
#	195729
#	229325
#
# Disc length: 3336 seconds
#
# Revision: 0
# Processed by: cddbd v1.5.1PL2 Copyright (c) Steve Scherf et al.
# Submitted via: CDex 1.51
#
DISCID=8e0d060a
DTITLE=The Calder Prescott Jazz Quartet - The Calder Prescott Jazz Quartet
DYEAR=2003
DGENRE=Jazz
TTITLE0=I got rhythm
TTITLE1=At Sundown
TTITLE2=Hello Dolly
TTITLE3=Wave
TTITLE4=Bill Bailey Won't You Please Come Home
TTITLE5=What A Wonderful World
TTITLE6=A KIss To Build A Dream On
TTITLE7=Alright OK You Win
TTITLE8=The Girl From Ipanema
TTITLE9=When The Saints Go Marching In
EXTD=YEAR: 2003
EXTT0=
EXTT1=
EXTT2=
EXTT3=
EXTT4=
EXTT5=
EXTT6=
EXTT7=
EXTT8=
EXTT9=
PLAYORDER=
